# xmcd
# 
# Track frame offsets:
#     150
#     19846
#     41382
#     56365
#     70530
#     84402
#     101700
#     117986
#     133702
#     150661
#     162549
#     178194
#     199792
#     212594
#     227760
#     241622
#     255919
#     271217
#     288211
#     305615
#     319142
# 
# Disc length: 4537
# 
# Revision: 0
# Processed by: cddbd v1.5.1PL0 Copyright (c) Steve Scherf et al.
# Submitted via: BonkEnc v1.0beta3
# 
DISCID=1911b715
DTITLE=Kenny Rogers - Love Songs
DYEAR=1900
DGENRE=Country
TTITLE0=She Believes In Mer
TTITLE1=Endless Love
TTITLE2=Crazy
TTITLE3=You are So Beautiful
TTITLE4=Love Me Tender
TTITLE5=Lady
TTITLE6=The Wind Beneath My Wings
TTITLE7=Through The Years
TTITLE8=When A Woman Loves A Man
TTITLE9=Always
TTITLE10=When I Fall In Love
TTITLE11=Have I told You Lately That I love You
TTITLE12=As Times Go By
TTITLE13=I Can't Help Falling In Love
TTITLE14=You Send Me
TTITLE15=You Light My Life
TTITLE16=Unforgettable
TTITLE17=You Decorate My Life
TTITLE18=I Swear
TTITLE19=I Will Always Love You
TTITLE20=Always And Forever
EXTD=
EXTT0=
EXTT1=
EXTT2=
EXTT3=
EXTT4=
EXTT5=
EXTT6=
EXTT7=
EXTT8=
EXTT9=
EXTT10=
EXTT11=
EXTT12=
EXTT13=
EXTT14=
EXTT15=
EXTT16=
EXTT17=
EXTT18=
EXTT19=
EXTT20=
PLAYORDER=
